<svg xmlns="http://www.w3.org/2000/svg" viewBox="0 0 64 64" fill="none">
  <defs>
    <linearGradient id="fg" x1="0%" y1="0%" x2="100%" y2="100%">
      <stop offset="0%" stop-color="#4F46E5"/>
      <stop offset="100%" stop-color="#7C3AED"/>
    </linearGradient>
  </defs>
  <rect width="64" height="64" rx="14" fill="url(#fg)"/>
  <path d="M40 20c0-4.42-3.58-8-8-8h-8c-4.42 0-8 3.58-8 8s3.58 8 8 8h8c4.42 0 8 3.58 8 8s-3.58 8-8 8h-8c-4.42 0-8-3.58-8-8" 
        stroke="white" stroke-width="4.5" stroke-linecap="round" fill="none"/>
  <circle cx="24" cy="20" r="2" fill="white" opacity="0.8"/>
  <circle cx="40" cy="36" r="2" fill="white" opacity="0.8"/>
  <path d="M46 14l2-5 2 5 5 2-5 2-2 5-2-5-5-2z" fill="white" opacity="0.7"/>
</svg>
