<svg xmlns="http://www.w3.org/2000/svg" viewBox="0 0 512 512" fill="none">
  <defs>
    <linearGradient id="brand-gradient" x1="0%" y1="0%" x2="100%" y2="100%">
      <stop offset="0%" stop-color="#4F46E5"/>
      <stop offset="50%" stop-color="#7C3AED"/>
      <stop offset="100%" stop-color="#F43F5E"/>
    </linearGradient>
    <linearGradient id="inner-gradient" x1="0%" y1="0%" x2="100%" y2="100%">
      <stop offset="0%" stop-color="#818CF8"/>
      <stop offset="100%" stop-color="#C084FC"/>
    </linearGradient>
  </defs>
  <!-- Background circle -->
  <circle cx="256" cy="256" r="240" fill="url(#brand-gradient)" opacity="0.1"/>
  <!-- Stylized S shape with neural network motif -->
  <path d="M320 160c0-33.14-26.86-60-60-60h-80c-33.14 0-60 26.86-60 60s26.86 60 60 60h80c33.14 0 60 26.86 60 60s-26.86 60-60 60h-80c-33.14 0-60-26.86-60-60" 
        stroke="url(#brand-gradient)" stroke-width="36" stroke-linecap="round" fill="none"/>
  <!-- Neural nodes -->
  <circle cx="180" cy="160" r="12" fill="url(#inner-gradient)"/>
  <circle cx="320" cy="160" r="12" fill="url(#inner-gradient)"/>
  <circle cx="180" cy="280" r="12" fill="url(#inner-gradient)"/>
  <circle cx="320" cy="280" r="12" fill="url(#inner-gradient)"/>
  <circle cx="250" cy="220" r="8" fill="url(#inner-gradient)" opacity="0.6"/>
  <!-- Connection lines (neural net) -->
  <line x1="192" y1="160" x2="245" y2="216" stroke="url(#inner-gradient)" stroke-width="2" opacity="0.4"/>
  <line x1="308" y1="160" x2="255" y2="216" stroke="url(#inner-gradient)" stroke-width="2" opacity="0.4"/>
  <line x1="250" y1="228" x2="192" y2="280" stroke="url(#inner-gradient)" stroke-width="2" opacity="0.4"/>
  <line x1="250" y1="228" x2="308" y2="280" stroke="url(#inner-gradient)" stroke-width="2" opacity="0.4"/>
  <!-- AI sparkle -->
  <path d="M370 120l8-20 8 20 20 8-20 8-8 20-8-20-20-8z" fill="url(#brand-gradient)" opacity="0.7"/>
  <path d="M140 360l5-13 5 13 13 5-13 5-5 13-5-13-13-5z" fill="url(#brand-gradient)" opacity="0.5"/>
</svg>
